HIERARCHY
ROOT Hips
{
	OFFSET 0 0 0
	CHANNELS 6 Xposition Yposition Zposition Yrotation Xrotation Zrotation
	JOINT Spine
	{
		OFFSET -0 8.18458 -2.60884
		CHANNELS 3 Yrotation Xrotation Zrotation
		JOINT Spine1
		{
			OFFSET -0 7.64996 0
			CHANNELS 3 Yrotation Xrotation Zrotation
			JOINT Spine2
			{
				OFFSET -0 7.64996 0
				CHANNELS 3 Yrotation Xrotation Zrotation
				JOINT Spine3
				{
					OFFSET -0 7.64996 0
					CHANNELS 3 Yrotation Xrotation Zrotation
					JOINT Neck
					{
						OFFSET -0 20.2406 3.60884
						CHANNELS 3 Yrotation Xrotation Zrotation
						JOINT Head
						{
							OFFSET -0 10.2307 0
							CHANNELS 3 Yrotation Xrotation Zrotation
							End Site
							{
								OFFSET 0 15 0
							}
						}
					}
					JOINT LeftShoulder
					{
						OFFSET 1.70512 8.71402 3.41024
						CHANNELS 3 Yrotation Xrotation Zrotation
						JOINT LeftArm
						{
							OFFSET 16.1177 0 0
							CHANNELS 3 Yrotation Xrotation Zrotation
							JOINT LeftForeArm
							{
								OFFSET 25.6257 0 0
								CHANNELS 3 Yrotation Xrotation Zrotation
								JOINT LeftHand
								{
									OFFSET 24.0244 0 0
									CHANNELS 3 Yrotation Xrotation Zrotation
									End Site
									{
										OFFSET 15 0 0
									}
								}
							}
						}
					}
					JOINT RightShoulder
					{
						OFFSET -1.70512 8.71402 3.41024
						CHANNELS 3 Yrotation Xrotation Zrotation
						JOINT RightArm
						{
							OFFSET -16.1177 0 0
							CHANNELS 3 Yrotation Xrotation Zrotation
							JOINT RightForeArm
							{
								OFFSET -25.6257 0 0
								CHANNELS 3 Yrotation Xrotation Zrotation
								JOINT RightHand
								{
									OFFSET -24.0244 0 0
									CHANNELS 3 Yrotation Xrotation Zrotation
									End Site
									{
										OFFSET -15 0 0
									}
								}
							}
						}
					}
				}
			}
		}
	}
	JOINT LeftUpLeg
	{
		OFFSET 10.2307 -3.41024 2
		CHANNELS 3 Yrotation Xrotation Zrotation
		JOINT LeftLeg
		{
			OFFSET -0 -40.9418 2.38717
			CHANNELS 3 Yrotation Xrotation Zrotation
			JOINT LeftFoot
			{
				OFFSET -0 -40.8162 -2.38717
				CHANNELS 3 Yrotation Xrotation Zrotation
				JOINT LeftToeBase
				{
					OFFSET -0 -6.58348 15.3461
					CHANNELS 3 Yrotation Xrotation Zrotation
					End Site
					{
						OFFSET 0 0 5
					}
				}
			}
		}
	}
	JOINT RightUpLeg
	{
		OFFSET -10.2307 -3.41024 2
		CHANNELS 3 Yrotation Xrotation Zrotation
		JOINT RightLeg
		{
			OFFSET -0 -40.9418 2.38717
			CHANNELS 3 Yrotation Xrotation Zrotation
			JOINT RightFoot
			{
				OFFSET -0 -40.8162 -2.38717
				CHANNELS 3 Yrotation Xrotation Zrotation
				JOINT RightToeBase
				{
					OFFSET -0 -6.58348 15.3461
					CHANNELS 3 Yrotation Xrotation Zrotation
					End Site
					{
						OFFSET 0 0 5
					}
				}
			}
		}
	}
}
MOTION
Frames: 8
Frame Time: 0.00833333
0 94.754197 0 0 0 0 0 0 0 0 0 0 0 0 0 0 0 0 0 0 0 0 0 0 0 0 0 0 0 0 0 0 0 0 0 0 0 0 0 0 0 0 0 0 0 0 0 0 0 0 0 0 0 0 0 0 0 0 0 0 0 0 0 0 0 0 0 0 0 0 0 0
-7.995025 93.766736 -64.487463 -1.419620 -4.931591 -1.270339 -0.298991 3.235974 0.198855 -0.156124 3.093749 0.136633 -0.012432 2.860512 0.033243 0.068676 2.710157 0.001963 1.467808 -4.763086 0.217198 1.010212 -5.212692 -4.179222 9.368832 0.865887 -2.570435 -13.737422 2.680093 -45.082933 -17.985030 -1.011794 9.693884 13.030608 17.878202 -17.843054 -7.169309 1.006748 3.178758 11.425389 3.263153 47.725826 22.464865 1.750653 -5.436187 -10.522563 5.293313 17.440669 1.158814 7.964199 6.463799 0.000000 3.509158 0.000000 6.896024 -2.086230 0.049250 0.000000 -6.073044 0.000000 -5.853326 3.937410 -5.354144 0.000000 6.854375 0.000000 -7.428711 1.142610 3.957988 0.000000 -10.092538 0.000000
-7.996676 93.770239 -64.484839 -1.412944 -4.932897 -1.273091 -0.302781 3.230333 0.198291 -0.159744 3.101469 0.137605 -0.007081 2.874050 0.034845 0.073232 2.706731 0.000668 1.467461 -4.735854 0.216775 1.010180 -5.241038 -4.180016 9.357392 0.866804 -2.602000 -13.705142 2.668407 -45.036593 -18.011673 -0.996059 9.664818 13.064090 17.861148 -17.811367 -7.167319 1.002115 3.192089 11.433719 3.298829 47.709022 22.475444 1.755029 -5.453543 -10.503103 5.271578 17.493913 1.160529 7.965444 6.467896 0.000000 3.510440 0.000000 6.893870 -2.079459 0.052972 0.000000 -6.074258 0.000000 -5.873101 3.932881 -5.350572 0.000000 6.869518 0.000000 -7.422946 1.155062 3.978243 0.000000 -10.095028 0.000000
-7.998364 93.769086 -64.482037 -1.400909 -4.932687 -1.280893 -0.303746 3.229651 0.211678 -0.161039 3.099338 0.139612 -0.005414 2.880734 0.027434 0.074286 2.725989 -0.005200 1.484846 -4.758288 0.189078 1.010909 -5.218937 -4.122923 9.351001 0.860374 -2.603901 -13.709576 2.665897 -45.022984 -18.025980 -1.003701 9.661162 13.056046 17.844408 -17.828714 -7.177710 0.978345 3.181017 11.455753 3.329456 47.718222 22.479289 1.736718 -5.439371 -10.512058 5.238553 17.439479 1.155703 7.971807 6.473473 0.000000 3.495837 0.000000 6.897997 -2.079609 0.077119 0.000000 -6.080675 0.000000 -5.898907 3.928192 -5.343294 0.000000 6.882796 0.000000 -7.417538 1.157167 3.970963 0.000000 -10.104662 0.000000
-7.999934 93.769708 -64.479047 -1.403173 -4.932956 -1.273579 -0.289446 3.233882 0.203955 -0.147281 3.100171 0.137333 -0.022570 2.883161 0.028890 0.056472 2.722320 -0.006813 1.499058 -4.742154 0.181979 1.015613 -5.222092 -4.117259 9.355463 0.876282 -2.626038 -13.697125 2.664061 -44.996898 -18.042495 -1.014754 9.678841 13.017012 17.855619 -17.852741 -7.163351 0.993567 3.180501 11.480109 3.338361 47.718754 22.462223 1.761671 -5.454105 -10.483964 5.226793 17.450126 1.157333 7.966641 6.469297 0.000000 3.510728 0.000000 6.888248 -2.074262 0.051089 0.000000 -6.080158 0.000000 -5.890215 3.934583 -5.347586 0.000000 6.874416 0.000000 -7.433480 1.155089 4.003839 0.000000 -10.086187 0.000000
-8.002512 93.768921 -64.475690 -1.402604 -4.930719 -1.271874 -0.294205 3.237308 0.193632 -0.152461 3.106411 0.133411 -0.014997 2.885142 0.032719 0.063213 2.713692 0.000812 1.500156 -4.745458 0.183168 1.016098 -5.196946 -4.126091 9.356798 0.869632 -2.632931 -13.654115 2.645523 -44.982399 -18.059101 -0.975215 9.643449 12.994147 17.855128 -17.853265 -7.167552 0.996512 3.183248 11.472249 3.351266 47.696073 22.486545 1.727681 -5.438999 -10.501663 5.244417 17.437442 1.163316 7.966336 6.469424 0.000000 3.509840 0.000000 6.890710 -2.078850 0.032975 0.000000 -6.091637 0.000000 -5.887921 3.937412 -5.351453 0.000000 6.868180 0.000000 -7.423902 1.149951 3.964716 0.000000 -10.099560 0.000000
-8.003642 93.770001 -64.474023 -1.398356 -4.933633 -1.279952 -0.287942 3.240282 0.203113 -0.146775 3.108346 0.136783 -0.015495 2.890958 0.030030 0.062007 2.728511 -0.003687 1.498718 -4.769177 0.196001 1.019052 -5.182769 -4.153838 9.350220 0.873460 -2.647748 -13.716381 2.677609 -44.966017 -18.063741 -1.078655 9.675768 12.971048 17.947598 -17.856550 -7.159605 0.994919 3.185798 11.448771 3.350673 47.688548 22.497176 1.771888 -5.437442 -10.511805 5.216011 17.415944 1.132607 7.972889 6.474410 0.000000 3.505995 0.000000 6.909968 -2.080137 0.086081 0.000000 -6.096443 0.000000 -5.898299 3.931876 -5.342119 0.000000 6.887767 0.000000 -7.418542 1.162024 3.980554 0.000000 -10.131416 0.000000
-8.007770 93.772186 -64.471631 -1.400951 -4.934898 -1.275913 -0.289420 3.241474 0.193423 -0.148313 3.119039 0.131859 -0.004594 2.888689 0.029048 0.072609 2.731552 -0.003021 1.503706 -4.766077 0.220898 1.024778 -5.189894 -4.174938 9.344654 0.882803 -2.646479 -13.693286 2.635856 -44.949051 -18.066395 -1.003643 9.658527 12.957602 17.908643 -17.869886 -7.159147 0.981216 3.195639 11.466158 3.396238 47.680185 22.490360 1.763847 -5.447881 -10.510047 5.213296 17.400992 1.114578 7.971939 6.475798 0.000000 3.506777 0.000000 6.891896 -2.050558 0.148005 0.000000 -6.144348 0.000000 -5.900944 3.932586 -5.343326 0.000000 6.886988 0.000000 -7.417381 1.171533 3.978472 0.000000 -10.147724 0.000000
